<svg xmlns="http://www.w3.org/2000/svg" width="600" height="600" viewBox="0 0 600 600"><title>pobp-logo</title><path fill="none" d="M0 0h600v600H0z"/><path d="M348.003 340.004h-16a8 8 0 0 0-8 8v8a24 24 0 0 1-48 0v-8a8 8 0 0 0-8-8h-16a8 8 0 0 0-8 8v8a24 24 0 0 1-48 0v-8a8 8 0 0 0-8-8h-16a8 8 0 0 0-8 8v8a24 24 0 0 1-48 0v-8a8 8 0 0 0-8-8h-16a8 8 0 0 0-8 8v8.001a55.99 55.99 0 0 0 96 39.176 55.964 55.964 0 0 0 80 0 55.99 55.99 0 0 0 96-39.177v-8a8 8 0 0 0-8-8zm0 112h-16a8 8 0 0 0-8 8v8a24 24 0 0 1-48 0v-8a8 8 0 0 0-8-8h-16a8 8 0 0 0-8 8v8a24 24 0 0 1-48 0v-8a8 8 0 0 0-8-8h-16a8 8 0 0 0-8 8v8a24 24 0 0 1-48 0v-7.999a8 8 0 0 0-8-8h-16a8 8 0 0 0-8 8v8a55.99 55.99 0 0 0 96 39.176 55.964 55.964 0 0 0 80 0 55.99 55.99 0 0 0 96-39.176v-8a8 8 0 0 0-8-8zm0-224h-16a8 8 0 0 0-8 8v8a24 24 0 1 1-48 0v-8a8 8 0 0 0-8-8h-16a8 8 0 0 0-8 8v8a24 24 0 0 1-48 0v-8a8 8 0 0 0-8-8h-16a8 8 0 0 0-8 8v8a24 24 0 0 1-48 0v-8a8 8 0 0 0-8-8h-16a8 8 0 0 0-8 8v8a55.99 55.99 0 0 0 96 39.176 55.964 55.964 0 0 0 80 0 55.99 55.99 0 0 0 96-39.176v-8a8 8 0 0 0-8-8z"/><path d="M554.43 317.174l-287.6-287.6a4 4 0 0 0-6.828 2.829v32.284a8 8 0 0 0 2.343 5.657l221.659 221.658h-80a8 8 0 0 0-8 8v240.002a8 8 0 0 0 8 8h16a8 8 0 0 0 8-8V324.003h123.598a4 4 0 0 0 2.829-6.829z"/></svg>