<svg xmlns="http://www.w3.org/2000/svg" width="600" height="600" viewBox="0 0 600 600"><title>pobp-logo</title><path fill="none" d="M0-.001h600v600H0z"/><path d="M554.43 317.174l-287.6-287.6a4 4 0 0 0-6.828 2.829v32.284a8 8 0 0 0 2.343 5.657l221.659 221.658h-80a8 8 0 0 0-8 8v240.002a8 8 0 0 0 8 8h16a8 8 0 0 0 8-8V324.003h123.598a4 4 0 0 0 2.829-6.829zM187.266 463.598a47.988 47.988 0 0 0-39.264-75.595h-56a8 8 0 0 0-8 8v144.001a8 8 0 0 0 8 8h64a47.989 47.989 0 0 0 31.264-84.406zM116 420.003h32a16 16 0 1 1 0 32h-32zm40 96h-40v-32h40a16 16 0 1 1 0 32zm-7.998-320.001h-56a8 8 0 0 0-8 8v145.804a6.197 6.197 0 0 0 6.196 6.197h19.607a6.197 6.197 0 0 0 6.196-6.197v-41.803h32a56 56 0 0 0 0-112.001zm0 80h-32v-48h32a24 24 0 1 1 0 48zm143.999 112.001h-56a8 8 0 0 0-8 8v144.001a8 8 0 0 0 8 8h16a8 8 0 0 0 8-8v-40h32a56 56 0 1 0 0-112.001zm0 80h-32v-48h32a24 24 0 1 1 0 48z"/><path d="M292.002 196.002a64 64 0 0 0-64 64v32a64 64 0 1 0 128 0v-32a64 64 0 0 0-64-64zm32 96a32 32 0 0 1-64 0v-32a32 32 0 1 1 64 0z"/></svg>