<svg xmlns="http://www.w3.org/2000/svg"><symbol id="symbol-pobp-logo-antique" viewBox="0 0 600 600"><title>pobp-logo</title><path fill="none" d="M0-.001h600v600H0z"/><path d="M242.96 347.744c-1.796-1.236-3.144-2.92-5.278-3.145-2.695-1.685-8.31-6.177-8.872-9.546-.45-.112-.561-2.47-.786-3.032-.225-.786-3.482-8.198-3.706-9.21a11.273 11.273 0 0 1-.45-3.256v-.561c0-.45.225-2.92.225-3.37 0-.112-.786-3.481-1.123-4.38a30.656 30.656 0 0 1-.786-7.187 33.172 33.172 0 0 1 .225-4.717c.337-2.92.786-6.064 1.123-8.535.224-2.92 1.01-10.444 1.01-11.118a49.279 49.279 0 0 1 1.573-6.963c.561-3.257 2.47-5.84 3.818-9.097a29.615 29.615 0 0 0 1.123-3.369c2.246-6.963 6.29-13.926 10.781-20.327 2.246-3.37 7.3-7.075 10.108-9.995a11.445 11.445 0 0 0 .898-1.685c.45-.449 1.573-2.133 17.295-16.172 1.236-.898 3.145-2.695 4.83-3.256.224 0 3.593-.562 4.155-.562a7.129 7.129 0 0 1 1.347-.786c.562-.225 3.93-2.134 4.043-2.583 3.37-1.348 7.188-1.572 10.67-2.695 1.796-.562 3.368-1.348 18.08-2.696 3.37 2.134 5.615 1.91 9.321 2.359 0 0 1.011.561 1.348.786 2.134 1.348 2.022 1.909 4.268 2.246h1.797a14.66 14.66 0 0 1 2.133.786c5.503 3.482 10.67 7.412 14.825 12.69 0 .113 1.46 3.482 1.684 3.819.225.561 3.37 4.155 3.37 4.717a9.78 9.78 0 0 1 .56 2.133c.113.562.113 4.493.562 4.83a37.434 37.434 0 0 0 3.145 7.749c.337 2.133-.45 3.481 1.684 4.716-.224 1.348-.786 7.974-.898 9.546a26.572 26.572 0 0 1 1.123 6.963c-.225.786-1.572 6.963-1.572 7.75-.225 1.347-.562 5.839-.562 6.064-.449 1.123-1.909 6.513-2.583 7.973 0 .337-1.684 3.482-1.684 3.819-2.134 4.716-2.359 10.556-5.503 14.936-.337.225-3.033 3.37-3.594 3.93a19.532 19.532 0 0 0-1.797 3.145 46.034 46.034 0 0 0-3.481 5.166 33.065 33.065 0 0 0-3.482 3.37c-2.134 2.358-2.583 5.278-4.717 7.748-2.92 3.145-6.176 6.851-9.658 9.097a18.268 18.268 0 0 1-3.369 1.797 14.35 14.35 0 0 1-1.572 2.358c-1.91 2.134-9.883 8.648-13.14 9.322a13.498 13.498 0 0 0-3.369 1.684 42.117 42.117 0 0 0-4.83 1.348c-.785.225-6.064 2.92-6.625 3.144a10.992 10.992 0 0 1-4.83 1.011c-1.347 0-2.92-.224-4.267-.224h-5.84c-.786 0-7.749-2.92-9.32-2.359-.338 0-3.707-2.358-4.044-2.358-2.358-.562-11.904-2.92-14.038-3.032-.225 0-1.123-.786-1.348-.786zm2.907-22.574c1.177 9.546 15.093 14.15 21.66 15.61 2.058 0 9.702-2.358 9.702-2.358.784-.449 7.743-4.267 8.625-4.717 5.096-2.47 9.31-2.47 13.035-6.962 1.862-2.471 1.862-5.616 4.41-7.75 2.744-2.358 6.468-6.4 7.644-9.545 1.569-3.482 7.645-8.76 7.939-14.15 1.078-2.36 3.43-4.268 4.116-6.851.294-.337.98-4.268 1.176-4.83 1.176-1.572 3.038-7.187 3.234-8.31 1.47-4.38.784-8.647 2.647-12.466.196-1.01 2.058-4.829 2.254-5.615l1.176-13.027c.196-2.359-1.568-6.402-1.862-8.199-.196-.224-.294-3.256-.49-3.93-.196-.337-1.862-5.39-2.058-5.952-1.372-4.043-1.568-3.706-4.9-6.29-2.059-1.46-3.725-3.818-6.47-3.818a25.143 25.143 0 0 0-7.448-1.01 45.39 45.39 0 0 0-8.82 1.01c-3.234 2.134-6.959 2.359-10.193 4.492-7.644 5.84-14.7 13.365-21.365 21.114-1.176.224-1.372 2.92-2.352 3.93-.294.562-3.528 3.482-3.724 3.819-.294.673-2.353 4.155-2.549 4.716-.196.337-2.744 4.268-3.234 4.83-1.47 2.358-.98 5.053-2.352 7.749-.49.224-2.352 3.369-2.548 3.93 0 .225-.98 3.257-.98 3.93a17.13 17.13 0 0 0-.882 3.033c-.686 1.572-1.666 2.134-2.548 3.93-.196.787-1.372 3.482-1.568 3.931-.294.113-.784 2.696-.98 3.033a38.384 38.384 0 0 1-1.863 4.716c0 .113.49 2.696.49 3.033 0 0-.098 3.706-.294 5.278 0 .562-.49 4.043-.49 4.83-.686.448-.882 1.796-1.078 3.144a7.923 7.923 0 0 1-.196 2.358 16.877 16.877 0 0 0 2.45 3.818c0 1.573.49 8.199.686 9.546zm115.622 98.054c0-.337-.786-4.829-.786-5.278 0-.113-.786-1.46-.786-1.685-.225-.224-1.348-3.369-1.797-3.93-1.573-4.268-2.471-7.75-5.953-10.894-2.358-1.91-5.053-3.032-7.86-4.604a33.708 33.708 0 0 0-4.83-2.134c-.225-.225-3.257-.786-3.818-1.011-.225 0-3.37-1.572-3.931-1.572-.337 0-4.492.786-4.717 1.347-4.267 0-6.738.225-11.006.225-2.92 0-4.716-.562-8.422-1.572h-3.033c-6.064 0-11.68.786-17.07.786h-2.134a2.888 2.888 0 0 1-2.358-.786c-8.423-.113-16.172-2.246-24.146-2.246-6.176 0-16.508 3.593-21.787 6.963a27.09 27.09 0 0 0-3.528 2.732 85.45 85.45 0 0 1-.823 3.844 11.17 11.17 0 0 1 .886 1.505c.592 1.272.606 2.725 1.155 3.983 1.67 3.827 5.464 3.973 9.025 3.134a24.32 24.32 0 0 1 2.494-1.834 9.766 9.766 0 0 0 1.572-.899c.899 0 6.963-.673 7.75-.786.224 0 1.347-.786 1.572-.786a8.238 8.238 0 0 1 2.246-.561c2.92-.787 4.38-.45 6.289-2.583 9.546 0 10.444.561 10.893.786a10.792 10.792 0 0 1 2.471 1.797 18.658 18.658 0 0 1 2.92 3.032c1.01 1.235 1.01 3.144 1.01 4.717 0 3.256-3.48 10.669-5.614 13.027 0 .112-1.46 1.572-1.46 1.685-1.46 2.695-1.91 6.289-3.257 9.209-1.573 3.593-5.279 7.187-6.177 11.005-1.01 4.268-1.01 8.985-2.134 13.252-2.807 8.76-7.412 17.07-11.118 25.606a6.745 6.745 0 0 0-.562 1.572c-.561.786-4.492 6.401-4.829 7.188-.786 1.123-3.706 11.904-6.289 18.642-.337 1.348-.561 6.963-3.257 9.883a28.518 28.518 0 0 1-15.385 7.861c-.337 0-4.83.674-5.616.674-3.256 1.236-9.096 4.942-9.096 8.985a3.367 3.367 0 0 0 .786 2.695c3.032 3.93 6.963 4.267 11.567 4.267h3.931c1.348-.112 6.177-1.347 6.963-1.347a33.588 33.588 0 0 1 4.717-1.685h5.053c4.83 0 9.659.899 14.6.899 2.134 0 5.054.224 8.086.224 4.268 0 8.76-.337 11.118-2.358 1.348-1.123 3.145-2.695 3.145-4.605 0-2.133-1.573-5.84-2.92-7.749-1.236-1.797-10.557 0-11.343-2.133a6.404 6.404 0 0 1-.112-1.46c0-2.471 1.909-4.605 1.909-7.3 0-11.343 5.952-21.001 7.749-31.895a61.965 61.965 0 0 0 .786-6.177c2.134-2.807 9.658-7.187 13.364-7.187h1.348a4.507 4.507 0 0 0 1.797.898c5.278.787 9.096-.112 13.813 2.359h14.15c4.493-1.91 9.322-2.695 14.039-4.717 3.032-1.46 5.053-4.043 7.749-6.401 3.706-3.033 8.535-4.83 10.893-9.097.337-.786 2.696-5.615 2.92-6.401.562-.337 5.166-4.83 5.615-5.279 0-.112.787-2.134.787-2.47.224-.45 2.133-4.156 2.358-4.493 0-.337.561-6.85.674-9.32v-1.012c0-2.134-1.91-6.738-2.246-8.535zm-19.429 4.717c-.786 2.134-3.93 11.792-4.717 14.15-1.684 5.054-5.39 9.097-9.546 12.242-.112.336-2.92 1.909-3.818 2.47-7.974 4.155-17.295 8.76-26.616 8.76-.786 0-4.492-.112-5.279-.112-.336-.45-2.133-2.022-2.358-2.359v-1.235a8.254 8.254 0 0 1 1.01-4.268c.225-.561 2.92-4.267 2.92-4.604.225-.786.787-6.963 1.011-7.75.337-2.919 2.92-5.053 3.819-7.86 1.235-3.594 1.909-8.873 3.93-12.354 2.92-6.289 6.177-12.69 11.68-17.295.899-1.01 5.952-2.358 7.188-2.358 2.246 0 5.39 2.358 7.524 3.144 1.797.786 3.93.562 5.39 1.685a21.386 21.386 0 0 1 7.862 16.958zM74.14 342.353c.786 0 5.278-.674 5.615-.674a28.518 28.518 0 0 0 15.386-7.861c2.695-2.92 2.92-8.535 3.257-9.883 2.583-6.738 5.503-17.52 6.289-18.643.337-.786 4.268-6.401 4.83-7.187a6.745 6.745 0 0 1 .56-1.572c3.707-8.536 8.311-16.846 11.119-25.606 1.123-4.267 1.123-8.984 2.134-13.252.898-3.818 4.604-7.412 6.176-11.006 1.348-2.92 1.797-6.513 3.257-9.209 0-.112 1.46-1.572 1.46-1.684 2.134-2.359 5.615-9.77 5.615-13.028 0-1.572 0-3.481-1.01-4.716a18.658 18.658 0 0 0-2.92-3.033 10.792 10.792 0 0 0-2.47-1.797c-.45-.224-1.349-.786-10.894-.786-1.91 2.134-3.37 1.797-6.29 2.583a8.238 8.238 0 0 0-2.246.562c-.224 0-1.347.786-1.572.786-.786.112-6.85.786-7.749.786a9.766 9.766 0 0 1-1.572.899c-4.268 2.695-10.557 9.209-10.894 14.824v5.39c0 .225-.786 2.134-.786 2.359v1.01c0 6.402 12.578 7.75 12.578 16.51 0 2.695-6.513 9.32-8.647 9.658H92.22c-2.583 0-4.717 0-6.963-1.685a47.832 47.832 0 0 1-5.503-5.278c-.224-.225-1.347-2.92-1.684-3.145-2.134-4.267-4.492-4.829-4.492-10.444v-1.236c.224-2.47 1.347-13.14 1.572-15.498 0-.337.786-1.347.786-1.572.112-.786 1.123-5.84 1.46-6.177.225-.449 3.37-4.716 4.492-6.401 3.37-3.706 7.75-8.984 12.017-11.68 5.278-3.369 15.61-6.963 21.787-6.963 7.974 0 15.723 2.134 24.145 2.247a2.888 2.888 0 0 0 2.359.786h2.134c5.39 0 11.005-.786 17.07-.786h3.032c3.706 1.01 5.503 1.572 8.423 1.572 4.268 0 6.738-.225 11.006-.225.224-.561 4.38-1.347 4.717-1.347.561 0 3.706 1.572 3.93 1.572.562.224 3.594.786 3.819 1.01a33.708 33.708 0 0 1 4.829 2.134c2.807 1.573 5.503 2.696 7.861 4.605 3.482 3.144 4.38 6.626 5.952 10.893.45.562 1.573 3.706 1.797 3.931 0 .225.786 1.572.786 1.685 0 .449.786 4.941.786 5.278.337 1.797 2.246 6.401 2.246 8.535v1.01c-.112 2.472-.673 8.985-.673 9.322-.225.337-2.134 4.043-2.359 4.492 0 .337-.786 2.359-.786 2.471-.45.45-5.054 4.941-5.615 5.278-.225.786-2.583 5.616-2.92 6.402-2.358 4.267-7.188 6.064-10.894 9.096-2.695 2.359-4.716 4.942-7.749 6.402-4.716 2.021-9.545 2.807-14.038 4.717H161.4c-4.717-2.471-8.535-1.573-13.814-2.359a4.507 4.507 0 0 1-1.796-.898h-1.348c-3.706 0-11.23 4.38-13.364 7.187a61.965 61.965 0 0 1-.787 6.177c-1.796 10.893-7.749 20.552-7.749 31.894 0 2.696-1.909 4.83-1.909 7.3a6.404 6.404 0 0 0 .113 1.46c.786 2.134 10.107.337 11.342 2.134 1.348 1.91 2.92 5.615 2.92 7.75 0 1.908-1.797 3.48-3.144 4.604-2.359 2.021-6.85 2.358-11.118 2.358-3.033 0-5.953-.225-8.086-.225-4.942 0-9.77-.898-14.6-.898h-5.054a33.588 33.588 0 0 0-4.716 1.684c-.787 0-5.616 1.236-6.963 1.348h-3.931c-4.604 0-8.535-.337-11.567-4.267a3.367 3.367 0 0 1-.787-2.696c0-4.043 5.84-7.749 9.097-8.984zm72.437-71.426c.224.337 2.021 1.91 2.358 2.359.786 0 4.492.112 5.278.112 9.322 0 18.643-4.605 26.617-8.76.898-.561 3.706-2.134 3.818-2.47 4.155-3.145 7.861-7.188 9.546-12.242.786-2.358 3.93-12.016 4.717-14.15v-.786a21.386 21.386 0 0 0-7.862-16.958c-1.46-1.123-3.593-.899-5.39-1.685-2.134-.786-5.279-3.144-7.525-3.144-1.235 0-6.289 1.347-7.187 2.358-5.503 4.604-8.76 11.006-11.68 17.295-2.021 3.481-2.695 8.76-3.93 12.353-.899 2.808-3.482 4.942-3.819 7.862-.225.786-.786 6.963-1.01 7.749 0 .337-2.696 4.043-2.92 4.604a8.254 8.254 0 0 0-1.011 4.268zM54.69 537.719c.45-.225 4.156-.786 4.718-1.011 4.267-.898 8.872-4.492 11.792-7.749 5.727-6.963 8.984-16.509 12.466-25.044 1.01-2.358 3.144-4.268 3.93-6.963.112-.674 1.348-5.727 1.348-6.064a66.446 66.446 0 0 1 3.144-6.402c.562-.786 3.594-5.615 3.819-6.176 1.909-3.594 3.481-7.637 5.615-11.119 0 0 1.572-1.123 1.572-1.347.562-.786 2.359-2.92 2.359-3.145a28.955 28.955 0 0 0 .786-3.818c.224-.45 1.684-3.706 2.358-4.717.337-.786 3.594-6.401 3.819-6.963v-3.369c.786-5.166 4.267-8.872 7.187-13.14a65.28 65.28 0 0 1 3.481-5.84 19.125 19.125 0 0 1 1.011-2.695 21.392 21.392 0 0 1 2.359-3.93c.112-.225 1.347-3.482 1.572-3.931a29.758 29.758 0 0 0 1.46-3.482c0-2.358-1.91-4.492-3.818-5.84-.787-.336-6.963-3.256-7.75-3.818-2.807-1.347-3.144-2.92-3.144-5.84v-1.572a2.42 2.42 0 0 1 .562-1.797 28.582 28.582 0 0 0 3.93-3.032c.786-.561 2.47-1.797 2.47-1.797h11.68c1.797-.786 2.359-.786 6.177-.786 1.797 0 15.386.786 17.183.786 2.246.225 9.097.225 16.06.225 6.85 0 13.813 0 16.396-.225 1.348.45 6.177 1.91 7.187 2.359 1.91.786 3.033 2.358 4.38 3.256a17.518 17.518 0 0 1 1.797.562c4.043 3.369 4.043 3.369 10.445 9.434 3.144 2.133 5.053 5.727 7.075 9.096.112 2.359 1.46 12.017 1.684 14.937 0 2.92-1.572 5.278-2.47 7.749-3.931 10.669-9.21 19.091-18.643 25.717-2.134 1.685-7.637 3.819-10.107 4.83-3.37 1.01-9.546.786-9.546 5.39v1.348c0 2.358.224 5.503 1.684 7.075 2.134 2.47 6.29 2.92 6.29 6.738 0 2.696-2.134 4.493-3.145 6.626v7.637c0 5.952.786 12.017.786 18.418-2.92 6.626-7.412 11.006-11.68 16.284-.337.225-1.572 2.022-2.47 3.145-10.108 7.412-21.45 8.76-33.692 8.76-2.246 0-4.604-.225-6.963-.225-1.684 1.348-3.706 1.572-5.84 1.572h-2.47c-1.573 0-5.503-.224-5.616-.224a29.607 29.607 0 0 0-3.93-.787 5.016 5.016 0 0 1-1.572.787 23.76 23.76 0 0 0-3.033 1.01h-11.68c-.786 0-4.267.562-5.615.786-.449 0-5.503 1.348-6.064 1.348-1.348.337-13.364.786-14.824.786-1.46.113-12.241 2.134-14.15 2.47-4.044 0-6.177-2.357-6.177-6.4 0-3.145.224-8.536 3.818-9.883zm50.763-1.797h3.93c8.31 0 17.183-1.91 25.83-2.246 1.123-2.359 2.471-1.46 4.38-2.359a26.062 26.062 0 0 0 2.583-1.572 19.43 19.43 0 0 0 3.819-1.572c.449-.225 2.021-1.123 2.358-1.348 8.535-7.524 14.375-14.038 17.07-25.044a6.101 6.101 0 0 0 .225-1.235 10.87 10.87 0 0 0-.225-1.348c0-1.909-.561-8.31-.674-9.321a12.87 12.87 0 0 0-1.46-4.605c-.336-.224-2.807-2.695-3.256-3.144-.225-.337-2.92-3.482-3.145-3.818l-6.963-7.3c-2.47-2.134-6.963-1.46-10.332-3.032-3.257-1.348-6.177-3.145-10.107-3.145-4.83 0-8.872 7.749-9.883 11.904a53.264 53.264 0 0 0-1.685 6.402c-.673 1.909-2.583 2.47-2.92 4.492-.561 1.348-3.706 10.444-4.155 11.567-2.47 7.637-8.086 10.67-9.321 18.867-.337 3.145-1.685 7.974-1.685 11.905 0 2.92 3.257 4.829 5.616 5.952zm79.624-132.52a52.836 52.836 0 0 0-16.51-5.39 15.71 15.71 0 0 0-3.705 1.123l-7.188 7.412a53.52 53.52 0 0 0-4.829 6.064c-.786 1.91-1.572 3.819-2.47 5.616a25.915 25.915 0 0 1-3.145 5.053c-2.695 5.84-4.268 11.23-9.77 15.161 1.01 3.145-4.044 8.872-4.044 13.59 0 1.122 0 3.48 1.011 4.267 1.685 1.797 9.097 1.797 11.792 1.797 2.022 0 3.145-1.011 5.054-1.011 3.369 0 5.615 1.01 8.76 1.01h3.93c1.348-3.593 3.819-4.155 7.188-5.727 1.347-.337 7.973-3.257 9.097-3.818 1.01-1.236 2.695-2.134 4.043-3.145 1.01-.786 4.267-2.92 4.716-3.144 1.573-.674 3.482-.674 4.605-2.246.786-1.011 3.369-4.942 3.93-5.503.225-.337.787-1.573.787-1.573a14.754 14.754 0 0 0 1.347-6.513 16.563 16.563 0 0 0-1.347-6.85 37.368 37.368 0 0 0-1.797-3.931l-1.685-1.348a18.602 18.602 0 0 0-1.235-2.695 31.246 31.246 0 0 0-3.032-3.706 19.345 19.345 0 0 1-2.359-1.348z"/><path d="M545.894 314.884c-.486-3.57-6.843-8.643-7.136-9.3-4.164-9.35-15.357-13.37-20.632-21.625l-1.413-3.173c-1.894-1.558-5.626-2.298-7.873-5.099-.818-1.837-4.46-8.219-4.998-8.979-.706-.686-7.816-2.723-8.298-2.908a22.77 22.77 0 0 1-3.028-5.455c-1.562-3.507-3.233-4.563-5.108-6.529-9.767-6.657-46.058-45.922-47.243-43.193-8.17-5.767-16.045-14.466-22.323-22.275a15.766 15.766 0 0 1-3.622-4.99c-4.848-6.845-12.83-9.493-17.53-16.004-5.96-5.75-13.487-20.406-21.135-23.204a36.437 36.437 0 0 1-3.232-2.763l-1.895-3.359c-3.79-8.515-10.62-7.676-17.287-14.11-10.455-9.552-20.318-21.369-29.827-31.94-5.311-5.64-12.423-9.476-17.585-14.781-1.413-3.172-12.896-19.03-18.704-22.684-6.557-4.126-19.035-19.177-25.88-16.129-3.509 1.561.466 16.717-.09 20.52-.423 2.894 4.759 10.686 4.759 10.686.148.334 4.307 4.284 5.459 4.173l3.939 8.85c3.346 7.513 7.69 7.382 14.633 11.292 1.726 1.633 2.097 2.468 5.072 9.147 5.2 4.488 18.732 11.067 24.229 14.422 2.525.278 3.044 1.446 4.085 3.784l2.454 5.51a44.265 44.265 0 0 0 16.453 14.484c.409 1.818 1.078 3.322 3.086 7.831a11.593 11.593 0 0 0 5.476 3.763l15.305 16.397 2.08 4.675c7.205 5.395 5.127 6.12 11.959 10.681 5.515 2.948 6.39 7.16 9.009 10.797 3.214 3.17 16.022 9.472 20.98 12.066 2.525 2.078 3.974 4.435 5.535 7.94l2.863 7.33a8.077 8.077 0 0 0 4.216 4.525c.408.018 5.42 1.39 5.791 2.224l4.143 6.16c.855 1.018 9.913 3.389 10.08 3.315 4.567 2.169 10.365 15.193 13.858 19.44 3.899 2.466 8.78 3.094 12.498 11.443.148.333-.278 2.525.243 3.693.817 1.837 4.087 3.783 5.292 4.247l5.85 4.598a9.834 9.834 0 0 0 5.997 4.933l1.859 4.175c.615 1.382 1.442 3.238 2.413 5.085l-10.281 1.263c-8.155 0-16.166-3.263-24.75-3.263-3.003 0-4.291.951-8.153.951l-10.444-1.767c-6.152 0-10.157 1.903-15.164 2.719h-3.844c-2.867 0-14.483-1.238-18.672-.848-4.63.52-3.126 6.594-3.126 8.156l3.528 44.628-1.544 15.093c0 3.123 3.088 5.854 3.088 7.807l-3.088 6.505c.222 1.562 2.646 4.554 3.088 5.205a51.328 51.328 0 0 0-3.528 20.037 45.853 45.853 0 0 0 3.748 17.825v13.271a88.729 88.729 0 0 1 1.103 14.833 150.86 150.86 0 0 1-1.323 20.949c0 3.642 3.75 5.204 3.75 7.806l-3.75 5.855c0 6.635 2.205 12.23 2.645 17.825a342.172 342.172 0 0 1 2.206 40.075v8.067c2.647 4.033 5.292 4.294 10.365 4.294 13.01 0 3.669-5.054 3.787-8.175l.015-.39c.044-1.17.96-2.062 2.512-2.288-.238-5.343-2.755-8.782-2.582-13.334l5.329-18.366c.064-1.691-1.435-2.895-1.317-6.017l3.598-7.601c.114-2.991-4.961-20.414-6.656-22.274.034-.91.26-1.036.654-11.44l1.51-4.913c.203-5.333-3.107-11.132-2.92-16.074s5.063-11.345 5.275-16.937c.153-4.032-4.26-9.855-4.091-14.277l5.329-18.368c.143-3.77-1.632-20.991-5.71-23.945 2.492-1.768 2.734-2.283 2.832-4.884.03-.78.035-.91-2.413-6.17l2.205-5.81-2.92-16.074 3.853-10.713c5.399-.571 11.028-1.5 16.663-1.594a1173.051 1173.051 0 0 1 53.79-1.224c6.151 0 14.306 1.224 20.17 1.224 5.534 0 11.543 1.88 15.923-.9 2.48 1.483 4.77 2.433 7.78 1.572 6.244-1.786 7.257-4.303 6.753-8z"/></symbol><symbol id="symbol-pobp-logo-base" viewBox="0 0 600 600"><title>pobp-logo</title><path fill="none" d="M0-.001h600v600H0z"/><path d="M554.43 317.174l-287.6-287.6a4 4 0 0 0-6.828 2.829v32.284a8 8 0 0 0 2.343 5.657l221.659 221.658h-80a8 8 0 0 0-8 8v240.002a8 8 0 0 0 8 8h16a8 8 0 0 0 8-8V324.003h123.598a4 4 0 0 0 2.829-6.829zM187.266 463.598a47.988 47.988 0 0 0-39.264-75.595h-56a8 8 0 0 0-8 8v144.001a8 8 0 0 0 8 8h64a47.989 47.989 0 0 0 31.264-84.406zM116 420.003h32a16 16 0 1 1 0 32h-32zm40 96h-40v-32h40a16 16 0 1 1 0 32zm-7.998-320.001h-56a8 8 0 0 0-8 8v145.804a6.197 6.197 0 0 0 6.196 6.197h19.607a6.197 6.197 0 0 0 6.196-6.197v-41.803h32a56 56 0 0 0 0-112.001zm0 80h-32v-48h32a24 24 0 1 1 0 48zm143.999 112.001h-56a8 8 0 0 0-8 8v144.001a8 8 0 0 0 8 8h16a8 8 0 0 0 8-8v-40h32a56 56 0 1 0 0-112.001zm0 80h-32v-48h32a24 24 0 1 1 0 48z"/><path d="M292.002 196.002a64 64 0 0 0-64 64v32a64 64 0 1 0 128 0v-32a64 64 0 0 0-64-64zm32 96a32 32 0 0 1-64 0v-32a32 32 0 1 1 64 0z"/></symbol><symbol id="symbol-pobp-logo-kayak" viewBox="0 0 600 600"><title>pobp-logo</title><path fill="none" d="M0 0h600v600H0z"/><path d="M348.003 340.004h-16a8 8 0 0 0-8 8v8a24 24 0 0 1-48 0v-8a8 8 0 0 0-8-8h-16a8 8 0 0 0-8 8v8a24 24 0 0 1-48 0v-8a8 8 0 0 0-8-8h-16a8 8 0 0 0-8 8v8a24 24 0 0 1-48 0v-8a8 8 0 0 0-8-8h-16a8 8 0 0 0-8 8v8.001a55.99 55.99 0 0 0 96 39.176 55.964 55.964 0 0 0 80 0 55.99 55.99 0 0 0 96-39.177v-8a8 8 0 0 0-8-8zm0 112h-16a8 8 0 0 0-8 8v8a24 24 0 0 1-48 0v-8a8 8 0 0 0-8-8h-16a8 8 0 0 0-8 8v8a24 24 0 0 1-48 0v-8a8 8 0 0 0-8-8h-16a8 8 0 0 0-8 8v8a24 24 0 0 1-48 0v-7.999a8 8 0 0 0-8-8h-16a8 8 0 0 0-8 8v8a55.99 55.99 0 0 0 96 39.176 55.964 55.964 0 0 0 80 0 55.99 55.99 0 0 0 96-39.176v-8a8 8 0 0 0-8-8zm0-224h-16a8 8 0 0 0-8 8v8a24 24 0 1 1-48 0v-8a8 8 0 0 0-8-8h-16a8 8 0 0 0-8 8v8a24 24 0 0 1-48 0v-8a8 8 0 0 0-8-8h-16a8 8 0 0 0-8 8v8a24 24 0 0 1-48 0v-8a8 8 0 0 0-8-8h-16a8 8 0 0 0-8 8v8a55.99 55.99 0 0 0 96 39.176 55.964 55.964 0 0 0 80 0 55.99 55.99 0 0 0 96-39.176v-8a8 8 0 0 0-8-8z"/><path d="M554.43 317.174l-287.6-287.6a4 4 0 0 0-6.828 2.829v32.284a8 8 0 0 0 2.343 5.657l221.659 221.658h-80a8 8 0 0 0-8 8v240.002a8 8 0 0 0 8 8h16a8 8 0 0 0 8-8V324.003h123.598a4 4 0 0 0 2.829-6.829z"/></symbol><symbol id="symbol-position-indicator" viewBox="0 0 100 100"><title>x</title><path d="M95 48H74.412A24.53 24.53 0 0 0 52 25.588V5h-4v20.588A24.53 24.53 0 0 0 25.588 48H5v4h20.588A24.53 24.53 0 0 0 48 74.412V95h4V74.412A24.53 24.53 0 0 0 74.412 52H95zm-24.601 0H52V29.601A20.531 20.531 0 0 1 70.399 48zM48 29.601V48H29.601A20.531 20.531 0 0 1 48 29.601zM29.601 52H48v18.399A20.531 20.531 0 0 1 29.601 52zM52 70.399V52h18.399A20.531 20.531 0 0 1 52 70.399z"/></symbol></svg>